# xmcd
#
# Track frame offsets:
#	150
#	13577
#	27872
#	49226
#	65729
#	83057
#	106223
#	119207
#	145337
#	159951
#	181652
#	212964
#	235726
#	263753
#
# Disc length: 3910 seconds
#
# Revision: 0
# Processed by: cddbd v1.4PL0 Copyright (c) Steve Scherf et al.
# Submitted via: audiograbber 1.81.02
#
DISCID=bf0f440e
DTITLE=v/a - tonal destruction [disk 001]
DYEAR=2001
DGENRE=Electronic
TTITLE0=Stolen Light - Road Rage
TTITLE1=Rec|use - Pop Killa
TTITLE2=Tarmvred - GF.vs.DSL
TTITLE3=Combat Astronomy - Codex 553
TTITLE4=Re:con - Paradox
TTITLE5=Mono No Aware - Hush Little Baby
TTITLE6=He Would Drown - Dielectric
TTITLE7=Muted Logic - Rupture
TTITLE8=Knar - Braindead (Schizoid "Terror Shrooms" Remix)
TTITLE9=Hypnoskull - The Shadowroller Pt. 1
TTITLE10=Scrape[DX] - Mental Genocide
TTITLE11=Monoid - Last Message
TTITLE12=Radial - Shattering Teardrops
TTITLE13=Otitis Media - Transition
EXTD=
EXTT0=
EXTT1=
EXTT2=
EXTT3=
EXTT4=
EXTT5=
EXTT6=
EXTT7=
EXTT8=
EXTT9=
EXTT10=
EXTT11=
EXTT12=
EXTT13=
PLAYORDER=
